<?xml version="1.0" encoding="UTF-8"?>
<!DOCTYPE svg PUBLIC "-//W3C//DTD SVG 1.1//EN" "http://www.w3.org/Graphics/SVG/1.1/DTD/svg11.dtd">
<!-- Creator: CorelDRAW 2018 (64-Bit) -->
<svg xmlns="http://www.w3.org/2000/svg" xml:space="preserve" width="50mm" height="50mm" version="1.1" style="shape-rendering:geometricPrecision; text-rendering:geometricPrecision; image-rendering:optimizeQuality; fill-rule:evenodd; clip-rule:evenodd"
viewBox="0 0 3163.73 3163.73"
 xmlns:xlink="http://www.w3.org/1999/xlink">
 <defs>
  <style type="text/css">
   <![CDATA[
    .fil0 {fill:#332C2B}
   ]]>
  </style>
 </defs>
 <g id="Layer_x0020_1">
  <metadata id="CorelCorpID_0Corel-Layer"/>
  <g id="_2813229791584">
   <path class="fil0" d="M1581.87 0c873.64,0 1581.87,708.23 1581.87,1581.87l0 1581.87c-436.82,0 -790.93,-354.11 -790.93,-790.93l0 -790.93c0,-436.82 -354.12,-790.93 -790.93,-790.93 -436.82,0 -790.93,354.11 -790.93,790.93 0,292.75 159.07,548.34 395.47,685.1l0 -685.11c0,-217.51 177.95,-395.46 395.46,-395.46l0.01 0c217.51,0 395.46,177.95 395.46,395.46l0 949.31 0 541.63 0 90.93 -395.47 0c-136.1,0 -268.17,-17.21 -394.18,-49.54 -10.14,-2.6 -20.24,-5.3 -30.3,-8.09l-1.01 -0.28c-10.19,-2.84 -20.34,-5.78 -30.45,-8.82l-2.7 -0.82c-9.36,-2.83 -18.68,-5.75 -27.97,-8.74l-4.13 -1.35c-8.54,-2.78 -17.05,-5.64 -25.52,-8.57l-6.33 -2.2c-7.94,-2.78 -15.85,-5.63 -23.73,-8.52l-6.68 -2.47c-7.83,-2.92 -15.64,-5.92 -23.41,-8.97l-6.31 -2.47c-7.96,-3.16 -15.88,-6.39 -23.77,-9.67l-8.41 -3.52c-7.32,-3.09 -14.61,-6.23 -21.87,-9.43l-9.11 -4.06c-6.82,-3.06 -13.63,-6.15 -20.39,-9.3l-9.04 -4.25c-6.21,-2.94 -12.4,-5.92 -18.58,-8.93l-10.31 -5.09c-5.99,-2.99 -11.96,-6.01 -17.91,-9.07l-11.5 -5.97c-5.5,-2.89 -10.97,-5.8 -16.43,-8.75 -4.61,-2.49 -9.21,-5.01 -13.8,-7.54 -4.45,-2.46 -8.87,-4.94 -13.29,-7.43 -5.26,-2.97 -10.52,-5.99 -15.74,-9.02 -3.75,-2.18 -7.49,-4.37 -11.22,-6.57 -5.16,-3.05 -10.3,-6.12 -15.42,-9.23 -5,-3.04 -9.99,-6.09 -14.96,-9.18 -4.04,-2.51 -8.06,-5.05 -12.08,-7.6 -4.68,-2.97 -9.35,-5.97 -14,-8.99 -5.42,-3.52 -10.81,-7.09 -16.19,-10.67l-9.12 -6.12c-5.78,-3.91 -11.53,-7.87 -17.26,-11.86 -410.25,-285.78 -678.74,-760.9 -678.74,-1298.77 0,-873.64 708.23,-1581.87 1581.87,-1581.87z"/>
   <path class="fil0" d="M1186.41 2266.96l0 -685.1c0,-217.51 177.95,-395.46 395.46,-395.46l0.01 0c217.51,0 395.46,177.95 395.46,395.46l0 510.8 0 174.29 0 105.85 -395.47 0c-144.07,0 -279.12,-38.53 -395.46,-105.84z"/>
  </g>
 </g>
</svg>
