<?xml version="1.0" encoding="UTF-8"?>
<!DOCTYPE svg PUBLIC "-//W3C//DTD SVG 1.1//EN" "http://www.w3.org/Graphics/SVG/1.1/DTD/svg11.dtd">
<!-- Creator: CorelDRAW 2018 (64-Bit) -->
<svg xmlns="http://www.w3.org/2000/svg" xml:space="preserve" width="50mm" height="50mm" version="1.1" style="shape-rendering:geometricPrecision; text-rendering:geometricPrecision; image-rendering:optimizeQuality; fill-rule:evenodd; clip-rule:evenodd"
viewBox="0 0 778.87 778.87"
 xmlns:xlink="http://www.w3.org/1999/xlink">
 <defs>
  <style type="text/css">
   <![CDATA[
    .fil1 {fill:url(#id0)}
    .fil0 {fill:url(#id1)}
   ]]>
  </style>
  <linearGradient id="id0" gradientUnits="userSpaceOnUse" x1="362.99" y1="560.51" x2="412.45" y2="319.82">
   <stop offset="0" style="stop-opacity:1; stop-color:#F39910"/>
   <stop offset="1" style="stop-opacity:1; stop-color:#FBC800"/>
  </linearGradient>
  <linearGradient id="id1" gradientUnits="userSpaceOnUse" x1="603.68" y1="85.72" x2="244.28" y2="728.67">
   <stop offset="0" style="stop-opacity:1; stop-color:#F19015"/>
   <stop offset="1" style="stop-opacity:1; stop-color:#FBC800"/>
  </linearGradient>
 </defs>
 <g id="Layer_x0020_1">
  <metadata id="CorelCorpID_0Corel-Layer"/>
  <g id="_2813229764640">
   <path class="fil0" d="M389.43 0c215.08,0 389.43,174.36 389.43,389.43l0 389.43c-107.54,0 -194.72,-87.18 -194.72,-194.72l0 -194.72c0,-107.54 -87.18,-194.72 -194.72,-194.72 -107.54,0 -194.72,87.18 -194.72,194.72 0,72.07 39.16,134.99 97.36,168.66l0 -168.66c0,-53.55 43.81,-97.36 97.36,-97.36l0 0c53.55,0 97.36,43.81 97.36,97.36l0 233.71 0 133.34 0 22.39 -97.36 0c-33.51,0 -66.02,-4.24 -97.04,-12.2 -2.5,-0.64 -4.98,-1.3 -7.46,-1.99l-0.25 -0.07c-2.51,-0.7 -5.01,-1.42 -7.5,-2.17l-0.66 -0.2c-2.3,-0.7 -4.6,-1.41 -6.89,-2.15l-1.02 -0.33c-2.1,-0.69 -4.2,-1.39 -6.28,-2.11l-1.56 -0.54c-1.95,-0.68 -3.9,-1.38 -5.84,-2.1l-1.64 -0.61c-1.93,-0.72 -3.85,-1.46 -5.76,-2.21l-1.55 -0.61c-1.96,-0.78 -3.91,-1.57 -5.85,-2.38l-2.07 -0.87c-1.8,-0.76 -3.6,-1.53 -5.39,-2.32l-2.24 -1c-1.68,-0.75 -3.36,-1.51 -5.02,-2.29l-2.23 -1.05c-1.53,-0.72 -3.05,-1.46 -4.57,-2.2l-2.54 -1.25c-1.48,-0.74 -2.94,-1.48 -4.41,-2.23l-2.83 -1.47c-1.35,-0.71 -2.7,-1.43 -4.05,-2.15 -1.14,-0.61 -2.27,-1.23 -3.4,-1.86 -1.1,-0.6 -2.18,-1.22 -3.27,-1.83 -1.3,-0.73 -2.59,-1.47 -3.88,-2.22 -0.92,-0.54 -1.84,-1.07 -2.76,-1.62 -1.27,-0.75 -2.54,-1.51 -3.8,-2.27 -1.23,-0.75 -2.46,-1.5 -3.68,-2.26 -1,-0.62 -1.98,-1.24 -2.97,-1.87 -1.15,-0.73 -2.3,-1.47 -3.45,-2.21 -1.33,-0.87 -2.66,-1.74 -3.99,-2.63l-2.24 -1.51c-1.42,-0.96 -2.84,-1.94 -4.25,-2.92 -101,-70.35 -167.1,-187.32 -167.1,-319.74 0,-215.08 174.36,-389.43 389.43,-389.43z"/>
   <path class="fil1" d="M292.08 558.09l0 -168.66c0,-53.55 43.81,-97.36 97.36,-97.36l0 0c53.55,0 97.36,43.81 97.36,97.36l0 125.75 0 42.91 0 26.06 -97.36 0c-35.47,0 -68.72,-9.49 -97.36,-26.06z"/>
  </g>
 </g>
</svg>
