<?xml version="1.0" encoding="UTF-8"?>
<!DOCTYPE svg PUBLIC "-//W3C//DTD SVG 1.1//EN" "http://www.w3.org/Graphics/SVG/1.1/DTD/svg11.dtd">
<!-- Creator: CorelDRAW 2018 (64-Bit) -->
<svg xmlns="http://www.w3.org/2000/svg" xml:space="preserve" width="50mm" height="50mm" version="1.1" style="shape-rendering:geometricPrecision; text-rendering:geometricPrecision; image-rendering:optimizeQuality; fill-rule:evenodd; clip-rule:evenodd"
viewBox="0 0 895.99 895.99"
 xmlns:xlink="http://www.w3.org/1999/xlink">
 <defs>
  <style type="text/css">
   <![CDATA[
    .fil0 {fill:#FEFEFE}
   ]]>
  </style>
 </defs>
 <g id="Layer_x0020_1">
  <metadata id="CorelCorpID_0Corel-Layer"/>
  <g id="_2849632889376">
   <path class="fil0" d="M448 0c247.42,0 448,200.57 448,448l0 448c-123.71,0 -224,-100.29 -224,-224l0 -224c0,-123.71 -100.29,-224 -224,-224 -123.71,0 -224,100.29 -224,224 0,82.91 45.05,155.29 112,194.03l0 -194.03c0,-61.6 50.4,-112 112,-112l0 0c61.6,0 112,50.4 112,112l0 268.85 0 153.39 0 25.75 -112 0c-38.54,0 -75.95,-4.87 -111.63,-14.03 -2.87,-0.74 -5.73,-1.5 -8.58,-2.29l-0.29 -0.08c-2.89,-0.8 -5.76,-1.64 -8.62,-2.5l-0.76 -0.23c-2.65,-0.8 -5.29,-1.63 -7.92,-2.48l-1.17 -0.38c-2.42,-0.79 -4.83,-1.6 -7.23,-2.43l-1.79 -0.62c-2.25,-0.79 -4.49,-1.59 -6.72,-2.41l-1.89 -0.7c-2.22,-0.83 -4.43,-1.68 -6.63,-2.54l-1.79 -0.7c-2.25,-0.89 -4.5,-1.81 -6.73,-2.74l-2.38 -1c-2.07,-0.88 -4.14,-1.77 -6.19,-2.67l-2.58 -1.15c-1.93,-0.87 -3.86,-1.74 -5.78,-2.63l-2.56 -1.2c-1.76,-0.83 -3.51,-1.68 -5.26,-2.53l-2.92 -1.44c-1.7,-0.85 -3.39,-1.7 -5.07,-2.57l-3.26 -1.69c-1.56,-0.82 -3.11,-1.64 -4.65,-2.48 -1.31,-0.71 -2.61,-1.42 -3.91,-2.13 -1.26,-0.7 -2.51,-1.4 -3.76,-2.11 -1.49,-0.84 -2.98,-1.7 -4.46,-2.55 -1.06,-0.62 -2.12,-1.24 -3.18,-1.86 -1.46,-0.86 -2.92,-1.73 -4.37,-2.61 -1.42,-0.86 -2.83,-1.73 -4.24,-2.6 -1.15,-0.71 -2.28,-1.43 -3.42,-2.15 -1.33,-0.84 -2.65,-1.69 -3.96,-2.55 -1.54,-1 -3.06,-2.01 -4.59,-3.02l-2.58 -1.73c-1.64,-1.11 -3.27,-2.23 -4.89,-3.36 -116.18,-80.93 -192.22,-215.49 -192.22,-367.82 0,-247.42 200.57,-448 448,-448z"/>
   <path class="fil0" d="M336 642.02l0 -194.03c0,-61.6 50.4,-112 112,-112l0 0c61.6,0 112,50.4 112,112l0 144.66 0 49.36 0 29.98 -112 0c-40.8,0 -79.05,-10.91 -112,-29.97z"/>
  </g>
 </g>
</svg>
