<?xml version="1.0" encoding="UTF-8"?>
<!DOCTYPE svg PUBLIC "-//W3C//DTD SVG 1.1//EN" "http://www.w3.org/Graphics/SVG/1.1/DTD/svg11.dtd">
<!-- Creator: CorelDRAW 2018 (64-Bit) -->
<svg xmlns="http://www.w3.org/2000/svg" xml:space="preserve" width="100mm" height="99.9999mm" version="1.1" style="shape-rendering:geometricPrecision; text-rendering:geometricPrecision; image-rendering:optimizeQuality; fill-rule:evenodd; clip-rule:evenodd"
viewBox="0 0 2695.57 2695.56"
 xmlns:xlink="http://www.w3.org/1999/xlink">
 <defs>
  <style type="text/css">
   <![CDATA[
    .fil0 {fill:#5B619E}
    .fil2 {fill:url(#id0)}
    .fil1 {fill:url(#id1)}
   ]]>
  </style>
  <linearGradient id="id0" gradientUnits="userSpaceOnUse" x1="1302.02" y1="1643.83" x2="1387.61" y2="1227.32">
   <stop offset="0" style="stop-opacity:1; stop-color:#F39910"/>
   <stop offset="1" style="stop-opacity:1; stop-color:#FBC800"/>
  </linearGradient>
  <linearGradient id="id1" gradientUnits="userSpaceOnUse" x1="1718.52" y1="822.22" x2="1096.61" y2="1934.81">
   <stop offset="0" style="stop-opacity:1; stop-color:#F19015"/>
   <stop offset="1" style="stop-opacity:1; stop-color:#FBC800"/>
  </linearGradient>
 </defs>
 <g id="Layer_x0020_1">
  <metadata id="CorelCorpID_0Corel-Layer"/>
  <rect class="fil0" x="-0" y="-0" width="2695.57" height="2695.56"/>
  <g id="_2813229805248">
   <path class="fil1" d="M1347.78 673.89c372.18,0 673.89,301.71 673.89,673.89l0 673.89c-186.09,0 -336.95,-150.85 -336.95,-336.95l0 -336.95c0,-186.09 -150.86,-336.95 -336.95,-336.95 -186.09,0 -336.95,150.85 -336.95,336.95 0,124.72 67.76,233.6 168.48,291.86l0 -291.86c0,-92.66 75.81,-168.47 168.47,-168.47l0.01 0c92.66,0 168.47,75.81 168.47,168.47l0 404.42 0 230.74 0 38.74 -168.48 0c-57.98,0 -114.24,-7.33 -167.92,-21.11 -4.32,-1.11 -8.62,-2.26 -12.91,-3.45l-0.43 -0.12c-4.34,-1.21 -8.67,-2.46 -12.97,-3.76l-1.15 -0.35c-3.99,-1.2 -7.96,-2.45 -11.91,-3.73l-1.76 -0.57c-3.64,-1.19 -7.26,-2.4 -10.87,-3.65l-2.7 -0.94c-3.38,-1.18 -6.75,-2.4 -10.11,-3.63l-2.85 -1.05c-3.34,-1.25 -6.66,-2.52 -9.97,-3.82l-2.69 -1.05c-3.39,-1.35 -6.76,-2.72 -10.12,-4.12l-3.58 -1.5c-3.12,-1.32 -6.22,-2.66 -9.32,-4.02l-3.88 -1.73c-2.91,-1.3 -5.81,-2.62 -8.69,-3.96l-3.85 -1.81c-2.65,-1.25 -5.28,-2.52 -7.91,-3.81l-4.39 -2.17c-2.55,-1.27 -5.09,-2.56 -7.63,-3.86l-4.9 -2.54c-2.34,-1.23 -4.67,-2.47 -7,-3.73 -1.97,-1.06 -3.92,-2.13 -5.88,-3.21 -1.89,-1.05 -3.78,-2.11 -5.66,-3.17 -2.24,-1.27 -4.48,-2.55 -6.71,-3.84 -1.6,-0.93 -3.19,-1.86 -4.78,-2.8 -2.2,-1.3 -4.39,-2.61 -6.57,-3.93 -2.13,-1.29 -4.26,-2.6 -6.37,-3.91 -1.72,-1.07 -3.43,-2.15 -5.15,-3.24 -1.99,-1.27 -3.98,-2.54 -5.96,-3.83 -2.31,-1.5 -4.61,-3.02 -6.9,-4.55l-3.88 -2.61c-2.46,-1.67 -4.91,-3.35 -7.35,-5.05 -174.77,-121.75 -289.15,-324.15 -289.15,-553.29 0,-372.18 301.71,-673.89 673.89,-673.89z"/>
   <path class="fil2" d="M1179.31 1639.64l0 -291.86c0,-92.66 75.81,-168.47 168.47,-168.47l0.01 0c92.66,0 168.47,75.81 168.47,168.47l0 217.61 0 74.25 0 45.09 -168.48 0c-61.38,0 -118.91,-16.42 -168.47,-45.09z"/>
  </g>
 </g>
</svg>
